<svg width="20" height="20" viewBox="0 0 20 20" fill="none" xmlns="http://www.w3.org/2000/svg">
<path d="M9.99963 2.16669C14.3258 2.16669 17.8334 5.67361 17.8336 9.99969C17.8336 14.3259 14.3259 17.8337 9.99963 17.8337C5.67355 17.8335 2.16663 14.3258 2.16663 9.99969C2.1668 5.67372 5.67366 2.16686 9.99963 2.16669ZM9.99963 9.49969C9.72375 9.49987 9.49981 9.72381 9.49963 9.99969V13.3337C9.49981 13.6096 9.72375 13.8335 9.99963 13.8337C10.2757 13.8337 10.4995 13.6097 10.4996 13.3337V9.99969C10.4995 9.7237 10.2757 9.49969 9.99963 9.49969ZM9.99963 6.16669C9.72364 6.16686 9.49963 6.39065 9.49963 6.66669C9.49963 6.94272 9.72364 7.16651 9.99963 7.16669H10.0084C10.2845 7.16662 10.5084 6.94279 10.5084 6.66669C10.5084 6.42502 10.3369 6.22303 10.109 6.17645L10.0084 6.16669H9.99963Z" stroke="#1E1E1E" stroke-linecap="round" stroke-linejoin="round"/>
</svg>
