<svg width="20" height="19" viewBox="0 0 20 19" fill="none" xmlns="http://www.w3.org/2000/svg">
<g clip-path="url(#clip0_143_81)">
<path d="M19.1781 3.46657L10.1781 0.46657C10.0625 0.427973 9.93749 0.427973 9.82187 0.46657L0.821875 3.46657C0.709953 3.50394 0.612614 3.57555 0.543634 3.67128C0.474653 3.76701 0.437524 3.88201 0.4375 4.00001V11.5C0.4375 11.6492 0.496763 11.7923 0.602252 11.8978C0.707742 12.0032 0.850816 12.0625 1 12.0625C1.14918 12.0625 1.29226 12.0032 1.39775 11.8978C1.50324 11.7923 1.5625 11.6492 1.5625 11.5V4.78001L5.18875 5.98938C4.73146 6.66519 4.42159 7.4297 4.27929 8.23318C4.137 9.03665 4.16547 9.86109 4.36285 10.6528C4.56023 11.4446 4.92211 12.1859 5.42493 12.8285C5.92774 13.4712 6.56024 14.0008 7.28125 14.3828C5.47656 14.995 3.90625 16.2194 2.78125 17.9453C2.71658 18.0692 2.70033 18.2127 2.73565 18.3479C2.77097 18.483 2.85534 18.6002 2.97233 18.6766C3.08932 18.753 3.23055 18.7831 3.36853 18.7611C3.50651 18.7391 3.63135 18.6665 3.71875 18.5575C5.16906 16.3366 7.4575 15.0625 10 15.0625C12.5425 15.0625 14.8309 16.3366 16.2812 18.5575C16.3681 18.6688 16.4937 18.7434 16.633 18.7664C16.7723 18.7895 16.9152 18.7593 17.0333 18.6818C17.1513 18.6044 17.236 18.4853 17.2703 18.3484C17.3047 18.2114 17.2863 18.0665 17.2188 17.9425C16.0938 16.2194 14.5253 14.995 12.7188 14.38C13.4394 13.9975 14.0714 13.4677 14.5738 12.8248C15.0761 12.182 15.4375 11.4406 15.6344 10.6489C15.8314 9.85717 15.8594 9.03287 15.7168 8.2296C15.5742 7.42633 15.264 6.66208 14.8066 5.98657L19.1781 4.53345C19.29 4.49602 19.3872 4.42438 19.4562 4.32865C19.5251 4.23293 19.5622 4.11796 19.5622 4.00001C19.5622 3.88205 19.5251 3.76709 19.4562 3.67136C19.3872 3.57563 19.29 3.50399 19.1781 3.46657ZM14.6875 9.25001C14.6878 9.99694 14.5097 10.7331 14.1678 11.3973C13.826 12.0614 13.3304 12.6342 12.7224 13.068C12.1143 13.5018 11.4114 13.784 10.6722 13.8911C9.93297 13.9982 9.17886 13.9272 8.47268 13.6838C7.76651 13.4404 7.12872 13.0318 6.61245 12.492C6.09618 11.9522 5.71638 11.2969 5.50469 10.5806C5.293 9.86425 5.25556 9.10772 5.39548 8.37401C5.53539 7.6403 5.84862 6.95064 6.30906 6.36251L9.82187 7.53345C9.93749 7.57204 10.0625 7.57204 10.1781 7.53345L13.6909 6.36251C14.3376 7.18596 14.6886 8.20297 14.6875 9.25001ZM10 6.40751L2.78125 4.00001L10 1.59251L17.2188 4.00001L10 6.40751Z" fill="black"/>
</g>
<defs>
<clipPath id="clip0_143_81">
<rect width="20" height="19" fill="white"/>
</clipPath>
</defs>
</svg>
